<?xml version="1.0" standalone="no"?>
<!DOCTYPE svg PUBLIC "-//W3C//DTD SVG 20010904//EN"
 "http://www.w3.org/TR/2001/REC-SVG-20010904/DTD/svg10.dtd">
<svg version="1.0" xmlns="http://www.w3.org/2000/svg"
 width="233.000000pt" height="216.000000pt" viewBox="0 0 233.000000 216.000000"
 preserveAspectRatio="xMidYMid meet">

<g transform="translate(0.000000,216.000000) scale(0.100000,-0.100000)"
fill="currentColor" stroke="none">
<path d="M1887 2061 c40 -77 47 -100 48 -149 0 -118 -45 -200 -165 -300 -184
-152 -198 -167 -252 -280 l-50 -107 -38 135 c-20 74 -53 183 -73 241 -77 222
-42 321 146 415 l71 36 -29 16 c-17 8 -66 17 -120 19 -61 4 -104 11 -133 25
-60 28 -110 18 -218 -44 -49 -28 -108 -59 -131 -70 -39 -17 -44 -17 -82 -2
-51 20 -71 13 -71 -24 0 -58 85 -91 149 -57 18 9 35 15 37 13 2 -2 -1 -20 -6
-39 -5 -19 -14 -93 -19 -166 -12 -147 -18 -181 -67 -335 -19 -59 -34 -122 -34
-140 -1 -30 -3 -27 -24 27 -31 80 -79 173 -108 208 -13 15 -65 60 -117 100
-105 80 -141 125 -171 209 -26 76 -27 220 -1 295 20 58 20 58 -65 -8 -163
-129 -226 -301 -159 -436 27 -53 109 -137 210 -214 69 -52 106 -109 89 -137
-19 -29 -86 -27 -145 4 -89 49 -205 196 -240 305 -6 19 -13 41 -16 49 -7 20
-41 -78 -49 -140 -8 -62 11 -143 44 -181 13 -17 48 -45 77 -64 72 -46 107 -94
113 -155 4 -41 1 -51 -13 -56 -42 -17 -191 107 -238 197 -30 58 -35 44 -13
-38 24 -90 62 -160 112 -205 97 -87 114 -108 114 -139 0 -23 -5 -29 -20 -29
-35 0 -103 40 -157 93 -60 58 -66 49 -24 -39 34 -73 79 -120 154 -163 52 -30
124 -88 116 -94 -2 -2 -48 0 -102 3 -53 3 -97 4 -97 2 0 -2 12 -19 27 -38 39
-51 100 -83 177 -92 48 -6 73 -15 91 -32 14 -13 25 -28 25 -33 0 -5 -29 -7
-65 -5 -36 1 -65 2 -65 1 0 -5 150 -113 177 -127 49 -25 209 -83 322 -116 129
-38 155 -51 209 -104 l43 -41 -17 40 c-27 66 -66 117 -126 165 l-56 44 47 27
c26 15 65 32 88 39 37 11 45 11 77 -9 38 -24 95 -124 97 -170 0 -24 1 -24 9
-6 5 11 16 46 25 77 10 33 29 68 46 84 24 23 34 26 73 22 27 -3 66 -19 96 -38
l51 -32 -35 -34 c-49 -47 -95 -117 -113 -170 -8 -25 -13 -47 -11 -49 2 -2 22
20 45 50 53 68 98 94 263 150 74 26 155 57 179 71 45 25 211 147 206 152 -1 1
-14 -2 -29 -8 -38 -14 -103 -13 -108 3 -15 38 19 56 127 67 99 10 123 24 159
89 33 61 33 66 0 44 -26 -17 -194 -36 -194 -22 0 12 75 58 145 90 39 17 82 40
97 51 29 20 66 76 93 141 l16 38 -53 -39 c-72 -54 -168 -103 -193 -100 -30 4
-32 48 -3 75 13 12 52 32 88 45 50 18 71 32 96 65 38 49 74 151 74 207 l0 40
-27 -53 c-30 -61 -117 -152 -164 -171 -47 -20 -83 -4 -87 38 -4 45 14 70 106
146 101 83 132 138 132 229 0 44 -7 86 -22 124 l-22 58 -7 -47 c-17 -113 -143
-278 -223 -294 -50 -9 -98 6 -115 37 -25 44 9 92 120 171 111 79 144 113 160
168 16 54 0 126 -52 230 -53 105 -120 178 -209 224 l-71 37 48 -90z m-621 -40
c-18 -34 -53 -41 -101 -19 -25 11 -25 11 32 44 48 27 60 31 71 20 12 -11 11
-19 -2 -45z m188 -831 c114 -37 201 -50 340 -50 99 0 108 -1 100 -17 -4 -10
-33 -118 -65 -241 -33 -123 -64 -231 -69 -240 -18 -28 -2 142 36 376 l7 42
-98 0 c-88 0 -112 4 -224 41 -101 33 -136 40 -179 37 -61 -5 -100 -30 -122
-76 -19 -39 -24 -40 -40 -2 -7 17 -26 42 -42 55 -38 32 -106 33 -180 4 -101
-40 -154 -52 -263 -58 -126 -7 -118 4 -90 -121 19 -88 34 -272 25 -315 -5 -24
-14 3 -44 130 -57 239 -83 348 -90 365 -5 13 12 15 121 16 131 1 173 9 336 60
101 31 182 32 214 2 13 -12 23 -30 23 -40 0 -28 13 -21 30 15 30 64 111 69
274 17z m-377 -185 c33 -38 45 -115 48 -315 2 -153 5 -192 20 -219 l17 -34 23
39 c21 35 22 44 13 99 -12 75 -5 360 10 397 33 81 87 87 230 27 82 -35 109
-42 169 -43 40 0 73 -3 73 -6 -1 -3 -7 -32 -16 -65 -29 -117 -28 -472 2 -549
6 -16 3 -18 -37 -11 -82 13 -114 24 -184 67 -107 64 -191 64 -249 -1 -23 -25
-39 -27 -57 -5 -7 8 -31 25 -53 36 -55 28 -109 19 -211 -37 -68 -37 -192 -82
-201 -72 -1 1 1 36 6 78 7 79 -4 494 -15 540 -7 26 -6 26 62 33 75 7 138 23
223 55 63 24 96 20 127 -14z"/>
</g>
</svg>
